<svg xmlns="http://www.w3.org/2000/svg" xmlns:xlink="http://www.w3.org/1999/xlink" preserveAspectRatio="xMidYMid meet" version="1.0" viewBox="0.0 0.0 358.0 358.0" zoomAndPan="magnify" style="fill: rgb(0, 0, 0);" original_string_length="1232" width="19.842226541451243px" height="19.842226541451243px"><g id="__id0_spcm47wojp"><path d="M314.9,354H43.1C21.5,354,4,336.5,4,314.9V43.1C4,21.5,21.5,4,43.1,4h271.9C336.5,4,354,21.5,354,43.1v271.9 C354,336.5,336.5,354,314.9,354z" style="fill: rgb(255, 255, 255);"/></g><g id="__id1_spcm47wojp"><path d="M314.9,358H43.1C19.3,358,0,338.7,0,314.9V43.1C0,19.3,19.3,0,43.1,0h271.9C338.7,0,358,19.3,358,43.1v271.9 C358,338.7,338.7,358,314.9,358z M43.1,8C23.7,8,8,23.7,8,43.1v271.9C8,334.3,23.7,350,43.1,350h271.9c19.3,0,35.1-15.7,35.1-35.1 V43.1c0-19.3-15.7-35.1-35-35.1H43.1z" style="fill: rgb(119, 164, 61);"/></g><g id="__id2_spcm47wojp"><path d="M299.5,93.4c0-19.3-15.7-35-35-35s-35,15.7-35,35s15.7,35,35,35S299.5,112.8,299.5,93.4z M128.4,264.5 c0-19.3-15.7-35-35-35s-35,15.7-35,35s15.7,35,35,35S128.4,283.9,128.4,264.5z M93.4,128.4c19.3,0,35-15.7,35-35s-15.7-35-35-35 s-35,15.7-35,35S74.1,128.4,93.4,128.4z M264.5,299.5c19.3,0,35-15.7,35-35s-15.7-35-35-35s-35,15.7-35,35S245.2,299.5,264.5,299.5z M214,179c0-19.3-15.7-35-35-35s-35,15.7-35,35s15.7,35,35,35S214,198.3,214,179z" style="fill: rgb(119, 164, 61);"/></g></svg>